<svg width="62" height="62" viewBox="0 0 62 62" fill="none" xmlns="http://www.w3.org/2000/svg">
<g id="Group 1597808">
<path id="Vector" d="M30.9116 0.233398C13.8657 0.233398 0 13.9413 0 30.7933C0 47.6452 13.8657 61.3531 30.9116 61.3531C47.9576 61.3531 61.8233 47.6452 61.8233 30.7933C61.8233 13.9413 47.9535 0.233398 30.9116 0.233398ZM58.6552 30.7933C58.6552 45.9196 46.208 58.2252 30.9075 58.2252C15.6071 58.2252 3.16392 45.9156 3.16392 30.7933C3.16392 15.6709 15.6111 3.36132 30.9116 3.36132C46.2121 3.36132 58.6593 15.6669 58.6593 30.7933H58.6552Z" fill="black"/>
<path id="Vector_2" d="M30.9117 7.62402C17.9903 7.62402 7.47656 18.0181 7.47656 30.7925C7.47656 43.5668 17.9903 53.9609 30.9117 53.9609C43.8331 53.9609 54.3468 43.5668 54.3468 30.7925C54.3468 18.0181 43.8331 7.62402 30.9117 7.62402ZM51.2892 30.7925C51.2892 41.9018 42.1489 50.938 30.9117 50.938C19.6744 50.938 10.5342 41.9018 10.5342 30.7925C10.5342 19.6831 19.6744 10.6469 30.9117 10.6469C42.1489 10.6469 51.2892 19.6831 51.2892 30.7925Z" fill="black"/>
<path id="Vector_3" d="M30.9116 14.7529C21.9676 14.7529 14.6914 21.9463 14.6914 30.7886C14.6914 39.6308 21.9676 46.8242 30.9116 46.8242C39.8556 46.8242 47.1318 39.6308 47.1318 30.7886C47.1318 21.9463 39.8556 14.7529 30.9116 14.7529ZM44.2418 30.7926C44.2418 38.0588 38.2614 43.9711 30.9116 43.9711C23.5618 43.9711 17.5815 38.0588 17.5815 30.7926C17.5815 23.5265 23.5618 17.6141 30.9116 17.6141C38.2614 17.6141 44.2418 23.5265 44.2418 30.7926Z" fill="black"/>
<path id="Vector_4" d="M30.9122 21.833C25.9169 21.833 21.8496 25.854 21.8496 30.7924C21.8496 35.7308 25.9169 39.7519 30.9122 39.7519C35.9074 39.7519 39.9747 35.7308 39.9747 30.7924C39.9747 25.854 35.9074 21.833 30.9122 21.833ZM37.4362 30.7924C37.4362 34.3528 34.5094 37.2463 30.9081 37.2463C27.3068 37.2463 24.3799 34.3528 24.3799 30.7924C24.3799 27.2321 27.3068 24.3386 30.9081 24.3386C34.5094 24.3386 37.4362 27.2321 37.4362 30.7924Z" fill="black"/>
</g>
</svg>
