<svg width="315" height="67" viewBox="0 0 315 67" fill="none" xmlns="http://www.w3.org/2000/svg">
<mask id="path-1-outside-1_676_3003" maskUnits="userSpaceOnUse" x="-3" y="-2.41504" width="321" height="72" fill="black">
<rect fill="white" x="-3" y="-2.41504" width="321" height="72"/>
<path d="M0.390509 65.585L14.0149 1.58496H34.4081C39.5281 1.58496 43.7803 2.64078 47.1647 4.75241C50.5492 6.86405 53.0802 9.74224 54.758 13.387C56.4357 17.0028 57.2746 21.067 57.2746 25.5795C57.2746 31.307 56.32 36.615 54.4109 41.5036C52.5017 46.3633 49.8694 50.601 46.5139 54.2168C43.1873 57.8037 39.3546 60.5951 35.0156 62.5911C30.6766 64.587 26.0773 65.585 21.2176 65.585H0.390509ZM14.7959 61.4629L9.97966 54.9978H21.478C24.5153 54.9978 27.3501 54.2313 29.9824 52.6982C32.6436 51.1361 34.9867 49.039 37.0115 46.4067C39.0653 43.7454 40.6707 40.7226 41.8278 37.3382C42.9849 33.9248 43.5634 30.3524 43.5634 26.6209C43.5634 23.7282 43.1006 21.2116 42.1749 19.0711C41.2493 16.9016 39.8463 15.2094 37.9661 13.9945C36.0859 12.7795 33.7139 12.1721 30.8502 12.1721H19.3085L26.6847 5.70699L14.7959 61.4629ZM77.2312 11.9985L84.6942 5.57682L79.0102 32.088L76.7539 28.2697H100.401L98.1885 38.6833H74.5844L78.4461 34.865L72.762 61.5931L68.0759 55.1714H99.4902L97.2773 65.585H58.3566L71.981 1.58496H110.902L108.689 11.9985H77.2312ZM129.673 66.6263C125.797 66.6263 122.311 66.0478 119.216 64.8907C116.121 63.7047 113.691 61.9836 111.927 59.7273C110.162 57.4421 109.28 54.6507 109.28 51.3531C109.28 49.9646 109.367 48.7497 109.54 47.7083C109.743 46.6381 110.003 45.4955 110.321 44.2806H123.772C123.483 45.3219 123.28 46.2476 123.165 47.0575C123.049 47.8674 122.991 48.6195 122.991 49.3138C122.991 51.4543 123.685 53.0742 125.074 54.1734C126.491 55.2726 128.574 55.8222 131.322 55.8222C133.549 55.8222 135.56 55.5474 137.353 54.9978C139.176 54.4482 140.622 53.5804 141.692 52.3945C142.762 51.2085 143.298 49.6609 143.298 47.7517C143.298 45.6401 142.169 43.8322 139.913 42.328C137.657 40.7949 134.721 39.392 131.105 38.1192C128.531 37.1357 126.072 35.9642 123.729 34.6046C121.386 33.2451 119.477 31.5529 118.001 29.528C116.555 27.5032 115.832 25.0589 115.832 22.1951C115.832 18.8396 116.526 15.8313 117.915 13.17C119.303 10.5088 121.212 8.25253 123.642 6.40123C126.072 4.521 128.863 3.08914 132.016 2.10563C135.198 1.12213 138.568 0.630379 142.126 0.630379C146.118 0.630379 149.647 1.22337 152.713 2.40936C155.779 3.56643 158.166 5.24417 159.873 7.44259C161.608 9.641 162.476 12.3022 162.476 15.4263C162.476 16.6123 162.375 17.7983 162.172 18.9843C161.999 20.1413 161.796 21.1682 161.565 22.065H148.071C148.244 21.3707 148.403 20.6186 148.548 19.8087C148.692 18.9987 148.765 18.1888 148.765 17.3789C148.765 15.3829 148.071 13.8787 146.682 12.8663C145.322 11.8539 143.283 11.3477 140.564 11.3477C138.337 11.3477 136.355 11.6514 134.62 12.2589C132.913 12.8374 131.568 13.7341 130.584 14.949C129.601 16.1639 129.109 17.726 129.109 19.6351C129.109 21.8046 130.208 23.5836 132.407 24.9721C134.605 26.3316 137.483 27.7056 141.041 29.0941C144.108 30.2512 146.812 31.5529 149.155 32.9992C151.527 34.4455 153.379 36.1667 154.709 38.1626C156.069 40.1296 156.748 42.545 156.748 45.4087C156.748 49.9212 155.534 53.7685 153.104 56.9504C150.703 60.1034 147.449 62.5043 143.341 64.1531C139.262 65.8019 134.706 66.6263 129.673 66.6263ZM161.405 65.585L174.986 1.58496H188.437L174.856 65.585H161.405ZM211.247 66.6263C206.966 66.6263 203.191 65.6717 199.922 63.7626C196.682 61.8534 194.151 59.0909 192.329 55.4751C190.506 51.8593 189.595 47.4914 189.595 42.3714C189.595 36.7307 190.434 31.3938 192.112 26.3606C193.79 21.3273 196.191 16.8871 199.315 13.0399C202.468 9.16371 206.228 6.12643 210.596 3.928C214.993 1.72959 219.896 0.630379 225.305 0.630379C229.21 0.630379 232.508 1.19445 235.198 2.32258C237.888 3.45072 240.072 4.92597 241.75 6.74835C243.428 8.57072 244.642 10.5667 245.395 12.7361C246.176 14.8767 246.566 16.9739 246.566 19.0277C246.566 19.6351 246.523 20.3438 246.436 21.1538C246.349 21.9348 246.248 22.5278 246.132 22.9328H233.072C233.13 22.6435 233.188 22.2096 233.245 21.6311C233.332 21.0236 233.376 20.5029 233.376 20.069C233.376 18.5359 233.043 17.1185 232.378 15.8168C231.712 14.5151 230.685 13.4593 229.297 12.6494C227.908 11.8394 226.144 11.4345 224.003 11.4345C220.561 11.4345 217.538 12.3601 214.935 14.2114C212.332 16.0338 210.162 18.4636 208.426 21.5009C206.691 24.5093 205.375 27.8213 204.478 31.4372C203.61 35.0241 203.176 38.5676 203.176 42.0677C203.176 45.3653 203.668 48.0265 204.652 50.0514C205.664 52.0763 207.009 53.5515 208.687 54.4772C210.365 55.3739 212.201 55.8222 214.197 55.8222C216.83 55.8222 219.144 55.3016 221.14 54.2602C223.165 53.1899 224.842 51.9172 226.173 50.4419C227.504 48.9377 228.444 47.5493 228.993 46.2765L229.601 43.1958H216.931L219.057 33.4765H243.702L236.847 65.585H229.731L230.035 58.5124C229.601 59.2645 228.646 60.2914 227.171 61.5931C225.725 62.8659 223.7 64.0229 221.096 65.0643C218.493 66.1056 215.21 66.6263 211.247 66.6263ZM260.826 65.585H247.679L261.303 1.58496H283.258L289.68 60.7253L288.725 61.2894L301.395 1.58496H314.499L300.875 65.585H278.789L272.324 6.61818L273.452 6.05411L260.826 65.585Z"/>
</mask>
<path d="M0.390509 65.585L-1.89254 65.0989L-2.49292 67.9192H0.390509V65.585ZM14.0149 1.58496V-0.749253H12.1253L11.7319 1.09894L14.0149 1.58496ZM47.1647 4.75241L45.9291 6.73277V6.73277L47.1647 4.75241ZM54.758 13.387L52.6376 14.363L52.6406 14.3695L54.758 13.387ZM54.4109 41.5036L56.5834 42.3571L56.5851 42.3527L54.4109 41.5036ZM46.5139 54.2168L44.8029 52.629L44.8024 52.6296L46.5139 54.2168ZM35.0156 62.5911L35.9911 64.7117L35.0156 62.5911ZM14.7959 61.4629L12.9241 62.8574L16.0038 66.9915L17.0788 61.9497L14.7959 61.4629ZM9.97966 54.9978V52.6636H5.33002L8.10778 56.3923L9.97966 54.9978ZM29.9824 52.6982L31.1571 54.7152L31.164 54.7112L29.9824 52.6982ZM37.0115 46.4067L35.1636 44.9805L35.1614 44.9835L37.0115 46.4067ZM41.8278 37.3382L44.0365 38.0933L44.0385 38.0876L41.8278 37.3382ZM42.1749 19.0711L40.0279 19.9871L40.0324 19.9975L42.1749 19.0711ZM37.9661 13.9945L36.6993 15.955L36.6993 15.955L37.9661 13.9945ZM19.3085 12.1721L17.7699 10.4167L13.1039 14.5063H19.3085V12.1721ZM26.6847 5.70699L28.9676 6.19377L30.434 -0.682978L25.1462 3.9516L26.6847 5.70699ZM2.67356 66.071L16.298 2.07098L11.7319 1.09894L-1.89254 65.0989L2.67356 66.071ZM14.0149 3.91917H34.4081V-0.749253H14.0149V3.91917ZM34.4081 3.91917C39.2134 3.91917 43.0069 4.9095 45.9291 6.73277L48.4004 2.77206C44.5538 0.372054 39.8428 -0.749253 34.4081 -0.749253V3.91917ZM45.9291 6.73277C48.9245 8.60169 51.1493 11.1297 52.6376 14.363L56.8783 12.411C55.0112 8.35481 52.1738 5.12641 48.4004 2.77206L45.9291 6.73277ZM52.6406 14.3695C54.1577 17.6391 54.9404 21.3614 54.9404 25.5795H59.6088C59.6088 20.7726 58.7137 16.3665 56.8754 12.4045L52.6406 14.3695ZM54.9404 25.5795C54.9404 31.0431 54.0308 36.0602 52.2366 40.6545L56.5851 42.3527C58.6092 37.1698 59.6088 31.5709 59.6088 25.5795H54.9404ZM52.2383 40.6501C50.4295 45.2544 47.9486 49.2393 44.8029 52.629L48.2249 55.8046C51.7901 51.9627 54.5739 47.4722 56.5834 42.3571L52.2383 40.6501ZM44.8024 52.6296C41.6787 55.9977 38.0944 58.6055 34.0401 60.4705L35.9911 64.7117C40.6148 62.5848 44.696 59.6097 48.2254 55.8041L44.8024 52.6296ZM34.0401 60.4705C30.0126 62.3231 25.7466 63.2507 21.2176 63.2507V67.9192C26.408 67.9192 31.3407 66.8509 35.9911 64.7117L34.0401 60.4705ZM21.2176 63.2507H0.390509V67.9192H21.2176V63.2507ZM16.6678 60.0684L11.8515 53.6034L8.10778 56.3923L12.9241 62.8574L16.6678 60.0684ZM9.97966 57.3321H21.478V52.6636H9.97966V57.3321ZM21.478 57.3321C24.9293 57.3321 28.1693 56.4554 31.1571 54.7152L28.8076 50.6811C26.5308 52.0072 24.1012 52.6636 21.478 52.6636V57.3321ZM31.164 54.7112C34.1031 52.9861 36.668 50.6816 38.8617 47.8298L35.1614 44.9835C33.3053 47.3963 31.1842 49.2862 28.8008 50.6851L31.164 54.7112ZM38.8594 47.8328C41.0792 44.9565 42.802 41.7041 44.0365 38.0933L39.6191 36.5831C38.5394 39.7411 37.0515 42.5343 35.1636 44.9805L38.8594 47.8328ZM44.0385 38.0876C45.2802 34.4244 45.8976 30.5982 45.8976 26.6209H41.2292C41.2292 30.1067 40.6895 33.4253 39.6171 36.5888L44.0385 38.0876ZM45.8976 26.6209C45.8976 23.4839 45.396 20.6389 44.3174 18.1446L40.0324 19.9975C40.8051 21.7843 41.2292 23.9726 41.2292 26.6209H45.8976ZM44.3219 18.155C43.2239 15.5816 41.5257 13.5154 39.2329 12.0339L36.6993 15.955C38.167 16.9033 39.2746 18.2215 40.028 19.9871L44.3219 18.155ZM39.2329 12.0339C36.8828 10.5154 34.039 9.83786 30.8502 9.83786V14.5063C33.3888 14.5063 35.289 15.0437 36.6993 15.955L39.2329 12.0339ZM30.8502 9.83786H19.3085V14.5063H30.8502V9.83786ZM20.847 13.9275L28.2233 7.46238L25.1462 3.9516L17.7699 10.4167L20.847 13.9275ZM24.4019 5.22021L12.513 60.9761L17.0788 61.9497L28.9676 6.19377L24.4019 5.22021ZM77.2312 11.9985L75.7087 10.2292L70.9397 14.3327H77.2312V11.9985ZM84.6942 5.57682L86.9766 6.06616L88.4311 -0.718032L83.1718 3.80747L84.6942 5.57682ZM79.0102 32.088L77.0006 33.2755L80.04 38.4191L81.2925 32.5774L79.0102 32.088ZM76.7539 28.2697V25.9355H72.6633L74.7443 29.4572L76.7539 28.2697ZM100.401 28.2697L102.685 28.7549L103.284 25.9355H100.401V28.2697ZM98.1885 38.6833V41.0175H100.079L100.472 39.1685L98.1885 38.6833ZM74.5844 38.6833L72.9432 37.0234L68.9038 41.0175H74.5844V38.6833ZM78.4461 34.865L80.7293 35.3505L82.3519 27.7205L76.8049 33.2051L78.4461 34.865ZM72.762 61.5931L70.8765 62.969L73.9578 67.1917L75.0452 62.0786L72.762 61.5931ZM68.0759 55.1714V52.8372H63.483L66.1904 56.5473L68.0759 55.1714ZM99.4902 55.1714L101.773 55.6566L102.373 52.8372H99.4902V55.1714ZM97.2773 65.585V67.9192H99.1676L99.5605 66.0701L97.2773 65.585ZM58.3566 65.585L56.0736 65.0989L55.4732 67.9192H58.3566V65.585ZM71.981 1.58496V-0.749253H70.0914L69.698 1.09894L71.981 1.58496ZM110.902 1.58496L113.185 2.07014L113.784 -0.749253H110.902V1.58496ZM108.689 11.9985V14.3327H110.579L110.972 12.4837L108.689 11.9985ZM78.7537 13.7679L86.2167 7.34618L83.1718 3.80747L75.7087 10.2292L78.7537 13.7679ZM82.4119 5.08748L76.7278 31.5987L81.2925 32.5774L86.9766 6.06616L82.4119 5.08748ZM81.0198 30.9005L78.7635 27.0822L74.7443 29.4572L77.0006 33.2755L81.0198 30.9005ZM76.7539 30.6039H100.401V25.9355H76.7539V30.6039ZM98.1181 27.7845L95.9053 38.1981L100.472 39.1685L102.685 28.7549L98.1181 27.7845ZM98.1885 36.3491H74.5844V41.0175H98.1885V36.3491ZM76.2256 40.3431L80.0873 36.5248L76.8049 33.2051L72.9432 37.0234L76.2256 40.3431ZM76.1629 34.3794L70.4789 61.1076L75.0452 62.0786L80.7293 35.3505L76.1629 34.3794ZM74.6476 60.2172L69.9615 53.7955L66.1904 56.5473L70.8765 62.969L74.6476 60.2172ZM68.0759 57.5056H99.4902V52.8372H68.0759V57.5056ZM97.2069 54.6862L94.9941 65.0998L99.5605 66.0701L101.773 55.6566L97.2069 54.6862ZM97.2773 63.2507H58.3566V67.9192H97.2773V63.2507ZM60.6397 66.071L74.2641 2.07098L69.698 1.09894L56.0736 65.0989L60.6397 66.071ZM71.981 3.91917H110.902V-0.749253H71.981V3.91917ZM108.618 1.09977L106.406 11.5133L110.972 12.4837L113.185 2.07014L108.618 1.09977ZM108.689 9.66431H77.2312V14.3327H108.689V9.66431ZM119.216 64.8907L118.381 67.0704L118.39 67.0738L118.399 67.0772L119.216 64.8907ZM111.927 59.7273L110.079 61.1539L110.084 61.1596L110.088 61.1653L111.927 59.7273ZM109.54 47.7083L107.247 47.2744L107.242 47.2995L107.238 47.3246L109.54 47.7083ZM110.321 44.2806V41.9463H108.52L108.063 43.6892L110.321 44.2806ZM123.772 44.2806L126.021 44.9053L126.843 41.9463H123.772V44.2806ZM125.074 54.1734L123.625 56.0036L123.634 56.0108L123.643 56.018L125.074 54.1734ZM137.353 54.9978L136.679 52.763L136.669 52.7661L137.353 54.9978ZM139.913 42.328L138.601 44.2587L138.61 44.2645L138.618 44.2702L139.913 42.328ZM131.105 38.1192L130.272 40.2997L130.301 40.3107L130.33 40.321L131.105 38.1192ZM123.729 34.6046L124.9 32.5857L123.729 34.6046ZM118.001 29.528L116.102 30.8847L116.108 30.8937L116.115 30.9025L118.001 29.528ZM117.915 13.17L119.984 14.2498L117.915 13.17ZM123.642 6.40123L125.057 8.25793L125.064 8.25264L125.071 8.24729L123.642 6.40123ZM132.016 2.10563L131.327 -0.124484L131.321 -0.122687L132.016 2.10563ZM152.713 2.40936L151.871 4.5864L151.88 4.58986L151.889 4.59325L152.713 2.40936ZM159.873 7.44258L158.029 8.87397L158.035 8.88149L158.04 8.88897L159.873 7.44258ZM162.172 18.9843L159.871 18.5914L159.867 18.6147L159.864 18.638L162.172 18.9843ZM161.565 22.065V24.3992H163.373L163.825 22.6482L161.565 22.065ZM148.071 22.065L145.806 21.4988L145.081 24.3992H148.071V22.065ZM146.682 12.8663L145.288 14.7385L145.297 14.7455L145.307 14.7524L146.682 12.8663ZM134.62 12.2589L135.369 14.4695L135.38 14.4658L135.391 14.462L134.62 12.2589ZM130.584 14.949L132.399 16.4177V16.4177L130.584 14.949ZM132.407 24.9721L131.16 26.9456L131.17 26.9515L131.179 26.9573L132.407 24.9721ZM141.041 29.0941L140.193 31.2686L140.205 31.2734L140.217 31.278L141.041 29.0941ZM149.155 32.9992L147.929 34.9855L147.94 34.9921L149.155 32.9992ZM154.709 38.1626L152.767 39.4574L152.778 39.4737L152.789 39.4898L154.709 38.1626ZM153.104 56.9504L151.249 55.5337L151.247 55.5363L153.104 56.9504ZM143.341 64.1531L142.471 61.9869L142.466 61.989L143.341 64.1531ZM129.673 64.2921C126.029 64.2921 122.826 63.7483 120.034 62.7043L118.399 67.0772C121.796 68.3473 125.565 68.9605 129.673 68.9605V64.2921ZM120.051 62.711C117.289 61.6524 115.23 60.1624 113.765 58.2894L110.088 61.1653C112.152 63.8048 114.953 65.757 118.381 67.0704L120.051 62.711ZM113.774 58.3008C112.369 56.4811 111.614 54.2114 111.614 51.3531H106.946C106.946 55.0901 107.955 58.4031 110.079 61.1539L113.774 58.3008ZM111.614 51.3531C111.614 50.0556 111.696 48.9743 111.843 48.0921L107.238 47.3246C107.038 48.5251 106.946 49.8736 106.946 51.3531H111.614ZM111.834 48.1423C112.025 47.1321 112.273 46.0425 112.579 44.8719L108.063 43.6892C107.733 44.9485 107.461 46.144 107.247 47.2744L111.834 48.1423ZM110.321 46.6148H123.772V41.9463H110.321V46.6148ZM121.523 43.6558C121.215 44.7652 120.988 45.7923 120.854 46.7274L125.475 47.3876C125.573 46.7028 125.751 45.8786 126.021 44.9053L121.523 43.6558ZM120.854 46.7274C120.725 47.628 120.657 48.4917 120.657 49.3138H125.325C125.325 48.7474 125.373 48.1069 125.475 47.3876L120.854 46.7274ZM120.657 49.3138C120.657 52.0023 121.559 54.3682 123.625 56.0036L126.523 52.3433C125.811 51.7802 125.325 50.9064 125.325 49.3138H120.657ZM123.643 56.018C125.637 57.564 128.317 58.1565 131.322 58.1565V53.488C128.831 53.488 127.346 52.9812 126.504 52.3289L123.643 56.018ZM131.322 58.1565C133.739 58.1565 135.985 57.8585 138.037 57.2296L136.669 52.7661C135.134 53.2364 133.36 53.488 131.322 53.488V58.1565ZM138.027 57.2326C140.179 56.5838 142.019 55.5162 143.425 53.9583L139.959 50.8306C139.225 51.6447 138.173 52.3126 136.679 52.7631L138.027 57.2326ZM143.425 53.9583C144.955 52.2626 145.632 50.1197 145.632 47.7517H140.963C140.963 49.2021 140.57 50.1543 139.959 50.8306L143.425 53.9583ZM145.632 47.7517C145.632 44.6397 143.906 42.1848 141.208 40.3858L138.618 44.2702C140.433 45.4796 140.963 46.6405 140.963 47.7517H145.632ZM141.225 40.3973C138.75 38.7157 135.616 37.2323 131.88 35.9174L130.33 40.321C133.826 41.5516 136.564 42.8741 138.601 44.2587L141.225 40.3973ZM131.938 35.9387C129.479 34.9991 127.133 33.8813 124.9 32.5857L122.557 36.6236C125.011 38.047 127.583 39.2723 130.272 40.2997L131.938 35.9387ZM124.9 32.5857C122.815 31.3755 121.157 29.8954 119.888 28.1535L116.115 30.9025C117.796 33.2103 119.957 35.1146 122.557 36.6236L124.9 32.5857ZM119.901 28.1713C118.778 26.6 118.166 24.6484 118.166 22.1951H113.498C113.498 25.4693 114.332 28.4063 116.102 30.8847L119.901 28.1713ZM118.166 22.1951C118.166 19.1707 118.789 16.54 119.984 14.2498L115.845 12.0903C114.263 15.1226 113.498 18.5086 113.498 22.1951H118.166ZM119.984 14.2498C121.211 11.898 122.895 9.90526 125.057 8.25793L122.227 4.54452C119.53 6.59979 117.395 9.11964 115.845 12.0903L119.984 14.2498ZM125.071 8.24729C127.265 6.54949 129.804 5.24095 132.711 4.33396L131.321 -0.122687C127.923 0.937327 124.879 2.49252 122.214 4.55517L125.071 8.24729ZM132.706 4.33575C135.649 3.42581 138.786 2.96459 142.126 2.96459V-1.70383C138.35 -1.70383 134.747 -1.18155 131.327 -0.124477L132.706 4.33575ZM142.126 2.96459C145.89 2.96459 149.124 3.52392 151.871 4.5864L153.555 0.232328C150.17 -1.07717 146.346 -1.70383 142.126 -1.70383V2.96459ZM151.889 4.59325C154.625 5.62564 156.63 7.07196 158.029 8.87397L161.716 6.0112C159.702 3.41637 156.934 1.50721 153.537 0.225471L151.889 4.59325ZM158.04 8.88897C159.413 10.6278 160.142 12.7631 160.142 15.4263H164.81C164.81 11.8414 163.803 8.65419 161.705 5.9962L158.04 8.88897ZM160.142 15.4263C160.142 16.4788 160.052 17.5333 159.871 18.5914L164.473 19.3771C164.697 18.0632 164.81 16.7458 164.81 15.4263H160.142ZM159.864 18.638C159.699 19.735 159.511 20.6802 159.305 21.4817L163.825 22.6482C164.081 21.6562 164.298 20.5477 164.481 19.3305L159.864 18.638ZM161.565 19.7307H148.071V24.3992H161.565V19.7307ZM150.335 22.6311C150.523 21.8784 150.693 21.0737 150.846 20.219L146.25 19.3984C146.113 20.1635 145.965 20.8631 145.806 21.4988L150.335 22.6311ZM150.846 20.219C151.014 19.2758 151.099 18.3285 151.099 17.3789H146.431C146.431 18.0491 146.371 18.7217 146.25 19.3984L150.846 20.219ZM151.099 17.3789C151.099 14.7746 150.151 12.5073 148.057 10.9803L145.307 14.7524C145.99 15.2502 146.431 15.9912 146.431 17.3789H151.099ZM148.076 10.9942C146.135 9.54899 143.505 9.01346 140.564 9.01346V13.6819C143.061 13.6819 144.509 14.1588 145.288 14.7385L148.076 10.9942ZM140.564 9.01346C138.128 9.01346 135.878 9.34537 133.849 10.0557L135.391 14.462C136.832 13.9574 138.546 13.6819 140.564 13.6819V9.01346ZM133.87 10.0482C131.811 10.7463 130.072 11.8725 128.77 13.4803L132.399 16.4177C133.064 15.5957 134.015 14.9285 135.369 14.4695L133.87 10.0482ZM128.77 13.4803C127.381 15.1968 126.775 17.3135 126.775 19.6351H131.443C131.443 18.1384 131.821 17.1311 132.399 16.4177L128.77 13.4803ZM126.775 19.6351C126.775 22.7742 128.441 25.2281 131.16 26.9456L133.653 22.9985C131.976 21.9391 131.443 20.835 131.443 19.6351H126.775ZM131.179 26.9573C133.54 28.4174 136.559 29.8506 140.193 31.2686L141.89 26.9196C138.408 25.5607 135.67 24.2458 133.635 22.9868L131.179 26.9573ZM140.217 31.278C143.169 32.3919 145.735 33.6309 147.929 34.9855L150.381 31.0129C147.89 29.4748 145.046 28.1105 141.865 26.9102L140.217 31.278ZM147.94 34.9921C150.067 36.2893 151.653 37.7857 152.767 39.4574L156.651 36.8678C155.105 34.5476 152.987 32.6017 150.37 31.0063L147.94 34.9921ZM152.789 39.4898C153.829 40.9949 154.414 42.9236 154.414 45.4087H159.083C159.083 42.1663 158.308 39.2643 156.629 36.8354L152.789 39.4898ZM154.414 45.4087C154.414 49.4776 153.329 52.8099 151.249 55.5337L154.959 58.3671C157.739 54.727 159.083 50.3648 159.083 45.4087H154.414ZM151.247 55.5363C149.13 58.316 146.235 60.4762 142.471 61.9869L144.211 66.3193C148.662 64.5323 152.276 61.8908 154.961 58.3645L151.247 55.5363ZM142.466 61.989C138.703 63.5105 134.449 64.2921 129.673 64.2921V68.9605C134.963 68.9605 139.822 68.0934 144.216 66.3172L142.466 61.989ZM161.405 65.585L159.122 65.1004L158.524 67.9192H161.405V65.585ZM174.986 1.58496V-0.749253H173.096L172.703 1.10042L174.986 1.58496ZM188.437 1.58496L190.721 2.0695L191.319 -0.749253H188.437V1.58496ZM174.856 65.585V67.9192H176.747L177.14 66.0695L174.856 65.585ZM163.689 66.0695L177.27 2.0695L172.703 1.10042L159.122 65.1004L163.689 66.0695ZM174.986 3.91917H188.437V-0.749253H174.986V3.91917ZM186.154 1.10042L172.573 65.1004L177.14 66.0695L190.721 2.0695L186.154 1.10042ZM174.856 63.2507H161.405V67.9192H174.856V63.2507ZM199.922 63.7626L198.737 65.7736L198.745 65.7782L199.922 63.7626ZM192.329 55.4751L190.244 56.5257L192.329 55.4751ZM192.112 26.3606L194.326 27.0987L192.112 26.3606ZM199.315 13.0399L197.504 11.5669L197.503 11.5684L199.315 13.0399ZM210.596 3.928L209.552 1.84022L209.547 1.84299L210.596 3.928ZM235.198 2.32258L234.295 4.47518V4.47518L235.198 2.32258ZM241.75 6.74835L240.033 8.32933V8.32933L241.75 6.74835ZM245.395 12.7361L243.189 13.5007L243.195 13.5185L243.202 13.5362L245.395 12.7361ZM246.436 21.1538L248.756 21.4115L248.757 21.4024L246.436 21.1538ZM246.132 22.9328V25.267H247.893L248.377 23.574L246.132 22.9328ZM233.072 22.9328L230.783 22.475L230.225 25.267H233.072V22.9328ZM233.245 21.6311L230.935 21.301L230.928 21.3498L230.923 21.3988L233.245 21.6311ZM232.378 15.8168L234.456 14.7545V14.7545L232.378 15.8168ZM229.297 12.6494L230.473 10.6331L229.297 12.6494ZM214.935 14.2114L216.273 16.1237L216.281 16.1187L216.288 16.1137L214.935 14.2114ZM208.426 21.5009L210.448 22.6674L210.453 22.659L208.426 21.5009ZM204.478 31.4372L202.212 30.8753L202.209 30.8883L204.478 31.4372ZM204.652 50.0514L202.552 51.0712L202.558 51.0833L202.564 51.0953L204.652 50.0514ZM208.687 54.4772L207.559 56.5209L207.573 56.5285L207.586 56.5358L208.687 54.4772ZM221.14 54.2602L222.219 56.3297L222.23 56.3239L221.14 54.2602ZM226.173 50.4419L227.906 52.0053L227.914 51.9969L227.921 51.9885L226.173 50.4419ZM228.993 46.2765L231.136 47.2018L231.235 46.9728L231.283 46.7281L228.993 46.2765ZM229.601 43.1958L231.891 43.6474L232.44 40.8616H229.601V43.1958ZM216.931 43.1958L214.651 42.697L214.031 45.53H216.931V43.1958ZM219.057 33.4765V31.1423H217.178L216.777 32.9777L219.057 33.4765ZM243.702 33.4765L245.985 33.9639L246.588 31.1423H243.702V33.4765ZM236.847 65.585V67.9192H238.735L239.13 66.0724L236.847 65.585ZM229.731 65.585L227.399 65.4848L227.294 67.9192H229.731V65.585ZM230.035 58.5124L232.367 58.6126L228.013 57.346L230.035 58.5124ZM227.171 61.5931L228.713 63.3454L228.715 63.3434L227.171 61.5931ZM221.096 65.0643L221.963 67.2315L221.096 65.0643ZM211.247 64.2921C207.324 64.2921 203.966 63.4213 201.099 61.747L198.745 65.7782C202.416 67.9222 206.607 68.9605 211.247 68.9605V64.2921ZM201.107 61.7516C198.283 60.0873 196.05 57.6726 194.413 54.4246L190.244 56.5257C192.252 60.5092 195.082 63.6196 198.737 65.7736L201.107 61.7516ZM194.413 54.4246C192.793 51.2093 191.929 47.2205 191.929 42.3714H187.261C187.261 47.7623 188.22 52.5093 190.244 56.5257L194.413 54.4246ZM191.929 42.3714C191.929 36.9657 192.733 31.8793 194.326 27.0987L189.897 25.6224C188.135 30.9083 187.261 36.4957 187.261 42.3714H191.929ZM194.326 27.0987C195.921 22.3132 198.192 18.1253 201.127 14.5113L197.503 11.5684C194.189 15.6489 191.658 20.3415 189.897 25.6224L194.326 27.0987ZM201.125 14.5128C204.075 10.8864 207.578 8.06012 211.645 6.01302L209.547 1.84299C204.878 4.19273 200.86 7.44105 197.504 11.5669L201.125 14.5128ZM211.64 6.01579C215.681 3.99518 220.221 2.96459 225.305 2.96459V-1.70383C219.57 -1.70383 214.305 -0.536002 209.552 1.84022L211.64 6.01579ZM225.305 2.96459C228.999 2.96459 231.97 3.50009 234.295 4.47518L236.101 0.169988C233.046 -1.11119 229.421 -1.70383 225.305 -1.70383V2.96459ZM234.295 4.47518C236.73 5.49636 238.619 6.79384 240.033 8.32933L243.467 5.16736C241.525 3.05811 239.046 1.40508 236.101 0.169987L234.295 4.47518ZM240.033 8.32933C241.511 9.93475 242.55 11.6572 243.189 13.5007L247.6 11.9716C246.735 9.47609 245.345 7.20669 243.467 5.16736L240.033 8.32933ZM243.202 13.5362C243.899 15.4483 244.232 17.275 244.232 19.0277H248.9C248.9 16.6727 248.452 14.3051 247.587 11.9361L243.202 13.5362ZM244.232 19.0277C244.232 19.5296 244.196 20.1519 244.115 20.9051L248.757 21.4024C248.85 20.5358 248.9 19.7407 248.9 19.0277H244.232ZM244.116 20.896C244.034 21.638 243.949 22.0767 243.888 22.2915L248.377 23.574C248.547 22.9789 248.665 22.2316 248.756 21.4115L244.116 20.896ZM246.132 20.5985H233.072V25.267H246.132V20.5985ZM235.361 23.3905C235.442 22.9858 235.508 22.4599 235.568 21.8633L230.923 21.3988C230.867 21.9593 230.818 22.3011 230.783 22.475L235.361 23.3905ZM235.556 21.9612C235.653 21.2853 235.71 20.6482 235.71 20.069H231.041C231.041 20.3577 231.012 20.7619 230.935 21.301L235.556 21.9612ZM235.71 20.069C235.71 18.1851 235.298 16.4012 234.456 14.7545L230.299 16.8791C230.788 17.8358 231.041 18.8867 231.041 20.069H235.71ZM234.456 14.7545C233.567 13.0158 232.208 11.6449 230.473 10.6331L228.121 14.6656C229.163 15.2737 229.857 16.0144 230.299 16.8791L234.456 14.7545ZM230.473 10.6331C228.628 9.55695 226.425 9.10024 224.003 9.10024V13.7687C225.863 13.7687 227.189 14.1219 228.121 14.6656L230.473 10.6331ZM224.003 9.10024C220.116 9.10024 216.612 10.1547 213.582 12.3091L216.288 16.1137C218.465 14.5655 221.006 13.7687 224.003 13.7687V9.10024ZM213.596 12.2991C210.683 14.3382 208.289 17.0369 206.4 20.3428L210.453 22.659C212.035 19.8903 213.98 17.7293 216.273 16.1237L213.596 12.2991ZM206.405 20.3344C204.552 23.5452 203.158 27.0629 202.212 30.8753L206.744 31.999C207.592 28.5798 208.829 25.4734 210.448 22.6673L206.405 20.3344ZM202.209 30.8883C201.3 34.6451 200.842 38.3729 200.842 42.0677H205.51C205.51 38.7622 205.92 35.403 206.747 31.9861L202.209 30.8883ZM200.842 42.0677C200.842 45.5672 201.359 48.6158 202.552 51.0712L206.751 49.0316C205.977 47.4373 205.51 45.1634 205.51 42.0677H200.842ZM202.564 51.0953C203.748 53.4645 205.397 55.3279 207.559 56.5209L209.814 52.4334C208.621 51.7751 207.58 50.688 206.739 49.0075L202.564 51.0953ZM207.586 56.5358C209.62 57.6224 211.837 58.1565 214.197 58.1565V53.488C212.566 53.488 211.109 53.1254 209.787 52.4185L207.586 56.5358ZM214.197 58.1565C217.142 58.1565 219.838 57.5722 222.219 56.3297L220.06 52.1907C218.45 53.0309 216.517 53.488 214.197 53.488V58.1565ZM222.23 56.3239C224.461 55.145 226.367 53.7121 227.906 52.0053L224.44 48.8785C223.318 50.1222 221.868 51.2349 220.049 52.1965L222.23 56.3239ZM227.921 51.9885C229.349 50.3747 230.456 48.7781 231.136 47.2018L226.85 45.3511C226.432 46.3204 225.658 47.5007 224.425 48.8953L227.921 51.9885ZM231.283 46.7281L231.891 43.6474L227.311 42.7442L226.703 45.8249L231.283 46.7281ZM229.601 40.8616H216.931V45.53H229.601V40.8616ZM219.211 43.6946L221.337 33.9753L216.777 32.9777L214.651 42.697L219.211 43.6946ZM219.057 35.8107H243.702V31.1423H219.057V35.8107ZM241.42 32.9891L234.564 65.0976L239.13 66.0724L245.985 33.9639L241.42 32.9891ZM236.847 63.2507H229.731V67.9192H236.847V63.2507ZM232.063 65.6851L232.367 58.6126L227.703 58.4123L227.399 65.4848L232.063 65.6851ZM228.013 57.346C227.786 57.7393 227.091 58.5508 225.626 59.8428L228.715 63.3434C230.201 62.032 231.416 60.7897 232.056 59.6789L228.013 57.346ZM225.629 59.8408C224.451 60.8773 222.688 61.9136 220.229 62.897L221.963 67.2315C224.711 66.1323 226.998 64.8544 228.713 63.3454L225.629 59.8408ZM220.229 62.897C217.99 63.7926 215.026 64.2921 211.247 64.2921V68.9605C215.393 68.9605 218.995 68.4187 221.963 67.2315L220.229 62.897ZM260.826 65.585V67.9192H262.717L263.109 66.0693L260.826 65.585ZM247.679 65.585L245.396 65.0989L244.795 67.9192H247.679V65.585ZM261.303 1.58496V-0.749253H259.413L259.02 1.09894L261.303 1.58496ZM283.258 1.58496L285.579 1.33298L285.353 -0.749253H283.258V1.58496ZM289.68 60.7253L290.867 62.7349L292.163 61.9693L292.001 60.4733L289.68 60.7253ZM288.725 61.2894L286.442 60.8048L285.339 66.0016L289.913 63.299L288.725 61.2894ZM301.395 1.58496V-0.749253H299.504L299.112 1.10041L301.395 1.58496ZM314.499 1.58496L316.782 2.07098L317.382 -0.749253H314.499V1.58496ZM300.875 65.585V67.9192H302.764L303.158 66.071L300.875 65.585ZM278.789 65.585L276.469 65.8394L276.697 67.9192H278.789V65.585ZM272.324 6.61818L271.28 4.53039L269.827 5.25716L270.004 6.87257L272.324 6.61818ZM273.452 6.05411L275.736 6.53842L276.741 1.80018L272.408 3.96633L273.452 6.05411ZM260.826 63.2507H247.679V67.9192H260.826V63.2507ZM249.962 66.071L263.586 2.07098L259.02 1.09894L245.396 65.0989L249.962 66.071ZM261.303 3.91917H283.258V-0.749253H261.303V3.91917ZM280.938 1.83694L287.359 60.9773L292.001 60.4733L285.579 1.33298L280.938 1.83694ZM288.493 58.7157L287.538 59.2798L289.913 63.299L290.867 62.7349L288.493 58.7157ZM291.009 61.7739L303.679 2.06951L299.112 1.10041L286.442 60.8048L291.009 61.7739ZM301.395 3.91917H314.499V-0.749253H301.395V3.91917ZM312.216 1.09894L298.592 65.0989L303.158 66.071L316.782 2.07098L312.216 1.09894ZM300.875 63.2507H278.789V67.9192H300.875V63.2507ZM281.109 65.3306L274.644 6.36378L270.004 6.87257L276.469 65.8394L281.109 65.3306ZM273.368 8.70596L274.496 8.14189L272.408 3.96633L271.28 4.53039L273.368 8.70596ZM271.169 5.5698L258.542 65.1007L263.109 66.0693L275.736 6.53842L271.169 5.5698Z" fill="black" mask="url(#path-1-outside-1_676_3003)"/>
</svg>
