<svg width="61" height="60" viewBox="0 0 61 60" fill="none" xmlns="http://www.w3.org/2000/svg">
<g id="Group 1597639">
<path id="Vector" d="M30.376 59.0956C22.5283 59.0956 15.1534 56.0746 9.60638 50.5907C4.05581 45.1067 1 37.8123 1 30.0574C1 22.3024 4.05581 15.008 9.60285 9.52058C15.1534 4.03666 22.5283 1.01562 30.376 1.01562C38.2238 1.01562 45.5986 4.03666 51.1457 9.52058C56.6927 15.0045 59.7485 22.2989 59.7485 30.0539C59.7485 37.8088 56.6927 45.1033 51.1457 50.5872C45.5986 56.0711 38.2202 59.0921 30.376 59.0921V59.0956ZM30.376 4.40644C16.0673 4.40644 4.42985 15.9115 4.42985 30.0574C4.42985 44.2032 16.0673 55.7083 30.376 55.7083C44.6847 55.7083 56.3222 44.2032 56.3222 30.0574C56.3222 15.9115 44.6812 4.40644 30.376 4.40644Z" fill="black" stroke="white" stroke-width="1.10712"/>
<path id="Vector_2" d="M30.4423 48.7385C24.6059 48.7385 18.8577 46.4466 14.6763 42.2115C11.4828 38.9812 9.35154 34.7531 8.67757 30.3053C8.53642 29.3808 9.18216 28.5157 10.1173 28.3761C11.0523 28.2366 11.9275 28.875 12.0686 29.7995C12.6402 33.5496 14.4363 37.1148 17.1322 39.8394C22.0547 44.8209 29.5495 46.6175 36.2293 44.4197C42.7714 42.2673 47.6586 36.5253 48.6854 29.796C48.8266 28.8715 49.7017 28.2331 50.6368 28.3727C51.5719 28.5122 52.2176 29.3739 52.0765 30.3018C50.8626 38.28 45.0686 45.0861 37.3126 47.6361C35.0719 48.3722 32.75 48.7315 30.4458 48.7315L30.4423 48.7385Z" fill="black" stroke="white" stroke-width="1.10712"/>
<path id="Vector_3" d="M19.8401 24.2411C21.7539 24.2411 23.3053 22.7073 23.3053 20.8154C23.3053 18.9234 21.7539 17.3896 19.8401 17.3896C17.9264 17.3896 16.375 18.9234 16.375 20.8154C16.375 22.7073 17.9264 24.2411 19.8401 24.2411Z" fill="black" stroke="white" stroke-width="1.10712"/>
<path id="Vector_4" d="M41.7601 24.2411C43.6738 24.2411 45.2252 22.7073 45.2252 20.8154C45.2252 18.9234 43.6738 17.3896 41.7601 17.3896C39.8463 17.3896 38.2949 18.9234 38.2949 20.8154C38.2949 22.7073 39.8463 24.2411 41.7601 24.2411Z" fill="black" stroke="white" stroke-width="1.10712"/>
</g>
</svg>
