<svg width="62" height="56" viewBox="0 0 62 56" fill="none" xmlns="http://www.w3.org/2000/svg">
<g id="Group">
<path id="Vector" d="M29.5743 39.8065C29.5743 30.9221 24.43 29.6768 17.6096 29.6768H1.08578C0.484909 29.6768 0 30.1562 0 30.7502V54.1935C0 54.7875 0.484909 55.2669 1.08578 55.2669H9.94066C10.5415 55.2669 11.0264 54.7875 11.0264 54.1935V49.6758H12.8923C13.4773 52.4896 15.7754 54.6677 18.6585 55.1523C19.0011 55.22 19.3648 55.2722 19.7601 55.2722H28.4885C29.0894 55.2722 29.5743 54.7928 29.5743 54.1987V49.6758C29.5743 49.0817 29.0894 48.6023 28.4885 48.6023H24.9202C27.9351 47.383 29.5743 44.8714 29.5743 39.8065ZM15.2378 43.1675H11.0264V37.2064H16.002C17.2249 37.2064 18.2474 38.1443 18.3475 39.348C18.5689 42.1462 17.6887 43.0893 15.2378 43.1675Z" fill="black"/>
<path id="Vector_2" d="M33.9971 26.3626H59.0912C59.6921 26.3626 60.177 25.8832 60.177 25.2892V20.1618C60.177 19.5678 59.6921 19.0884 59.0912 19.0884H43.9536V15.1438H58.2743C58.6221 15.1438 58.9068 14.8624 58.9068 14.5185V12.6166C58.9068 12.2727 58.6221 11.9913 58.2743 11.9913H43.9536V8.375H58.9226C59.5234 8.375 60.0084 7.89561 60.0084 7.30158V1.84588C60.0084 1.25185 59.5234 0.772461 58.9226 0.772461H34.0077C33.4068 0.772461 32.9219 1.25185 32.9219 1.84588V25.3048C32.9271 25.8884 33.4068 26.3626 33.9971 26.3626Z" fill="black"/>
<path id="Vector_3" d="M28.4891 0.772461H20.4722C19.8714 0.772461 19.3865 1.25185 19.3865 1.84588V13.862H19.1862L13.2302 1.38733C13.051 1.01216 12.6662 0.772461 12.2498 0.772461H1.09164C0.490769 0.772461 0.00585938 1.25185 0.00585938 1.84588V25.2892C0.00585938 25.8832 0.490769 26.3626 1.09164 26.3626H9.10847C9.70934 26.3626 10.1942 25.8832 10.1942 25.2892V13.1637H10.3945L16.7774 25.7686C16.9619 26.1334 17.3361 26.3626 17.7472 26.3626H28.4891C29.0899 26.3626 29.5748 25.8832 29.5748 25.2892V1.84588C29.5748 1.25185 29.0899 0.772461 28.4891 0.772461Z" fill="black"/>
<path id="Vector_4" d="M48.6327 29.6768H34.0116C33.4107 29.6768 32.9258 30.1562 32.9258 30.7502V54.0476C32.9258 54.7198 33.4792 55.2669 34.1591 55.2669H48.6327C57.4559 55.2669 61.9993 51.906 61.9993 42.6151C61.9993 42.563 61.9941 42.5214 61.9941 42.4692C61.9941 42.4171 61.9993 42.3754 61.9993 42.3233C61.9993 33.0429 57.4559 29.6768 48.6327 29.6768ZM46.7615 47.4091H43.7888V44.5327V37.5398H46.7615C50.0452 37.5398 50.9202 39.3167 50.9623 42.4745C50.9149 45.6322 50.0452 47.4091 46.7615 47.4091Z" fill="black"/>
</g>
</svg>
