<svg width="56" height="56" viewBox="0 0 56 56" fill="none" xmlns="http://www.w3.org/2000/svg">
<g id="OBJECTS" clip-path="url(#clip0_676_3014)">
<path id="Vector" d="M23.5 55.5732H27.9983H32.5003L27.9983 28.0215L23.5 55.5732Z" fill="black"/>
<path id="Vector_2" d="M32.5003 0.210938H27.9983H23.5L27.9983 27.7627L32.5003 0.210938Z" fill="black"/>
<path id="Vector_3" d="M28.1309 27.8905L55.9998 32.3413V27.8905V23.4434L28.1309 27.8905Z" fill="black"/>
<path id="Vector_4" d="M0 23.4434V27.8905V32.3413L27.8689 27.8905L0 23.4434Z" fill="black"/>
<path id="Vector_5" d="M50.9803 11.4638L47.7968 8.32016L44.6169 5.17285L28.0898 27.7992L50.9803 11.4638Z" fill="black"/>
<path id="Vector_6" d="M5.01953 44.3214L8.20307 47.4651L11.3829 50.6124L27.9063 27.9824L5.01953 44.3214Z" fill="black"/>
<path id="Vector_7" d="M11.3829 5.17285L8.20307 8.32016L5.01953 11.4638L27.9063 27.7992L11.3829 5.17285Z" fill="black"/>
<path id="Vector_8" d="M44.6169 50.6124L47.7968 47.4651L50.9803 44.3214L28.0898 27.9824L44.6169 50.6124Z" fill="black"/>
</g>
<defs>
<clipPath id="clip0_676_3014">
<rect width="56" height="55.3627" fill="white" transform="translate(0 0.210938)"/>
</clipPath>
</defs>
</svg>
